<?xml version="1.0" encoding="UTF-8" standalone="no"?>
<!-- Created with Inkscape (http://www.inkscape.org/) -->
<svg xmlns:inkscape="http://www.inkscape.org/namespaces/inkscape" xmlns:rdf="http://www.w3.org/1999/02/22-rdf-syntax-ns#" xmlns="http://www.w3.org/2000/svg" xmlns:xlink="http://www.w3.org/1999/xlink" xmlns:ns1="http://sozi.baierouge.fr" xmlns:cc="http://creativecommons.org/ns#" xmlns:sodipodi="http://sodipodi.sourceforge.net/DTD/sodipodi-0.dtd" xmlns:dc="http://purl.org/dc/elements/1.1/" id="svg2" xml:space="preserve" viewBox="0 0 48.137 24.775" version="1.1" inkscape:version="0.91 r13725">
  <defs id="defs6">
    <linearGradient id="linearGradient98" y2="-40.474" gradientUnits="userSpaceOnUse" x2="5.4906" gradientTransform="matrix(-.09624 -.79416 -.79416 .09624 .00071228 19.84)" y1="-40.474" x1=".50440">
      <stop id="stop100" style="stop-color:#3c3f40" offset="0"/>
      <stop id="stop102" style="stop-color:#53595c" offset=".27450"/>
      <stop id="stop104" style="stop-color:#4c5054" offset="0.349"/>
      <stop id="stop106" style="stop-color:#383c3f" offset=".57250"/>
      <stop id="stop108" style="stop-color:#2d2f32" offset=".79220"/>
      <stop id="stop110" style="stop-color:#292b2e" offset="1"/>
    </linearGradient>
    <linearGradient id="linearGradient126" y2="-28.657" gradientUnits="userSpaceOnUse" x2="24.295" gradientTransform="matrix(.23648 -.76424 -.76424 -.23648 -.000029823 19.84)" y1="-28.657" x1="18.459">
      <stop id="stop128" style="stop-color:#3c3f40" offset="0"/>
      <stop id="stop130" style="stop-color:#53595c" offset=".27450"/>
      <stop id="stop132" style="stop-color:#4c5054" offset="0.349"/>
      <stop id="stop134" style="stop-color:#383c3f" offset=".57250"/>
      <stop id="stop136" style="stop-color:#2d2f32" offset=".79220"/>
      <stop id="stop138" style="stop-color:#292b2e" offset="1"/>
    </linearGradient>
  </defs>
  <g id="g10" transform="matrix(1.25,0,0,-1.25,0,24.775)">
    <g id="g12">
      <path id="path14" style="fill-rule:evenodd;fill:#000000;fill-opacity:0.298" d="m6.559 2.64 1.32-0.281c0.402 0 0.68-0.012 0.84-0.039 0.269-0.082 0.496-0.242 0.679-0.48 0.188-0.243 0.364-0.399 0.524-0.481 0.078-0.027 0.293-0.082 0.637-0.16 0.027-0.16-0.012-0.399-0.118-0.719-0.828-0.265-1.429-0.226-1.8 0.117-0.133 0.188-0.243 0.321-0.321 0.403-0.082 0.105-0.226 0.132-0.441 0.078-0.371-0.211-0.691-0.332-0.957-0.36-0.32-0.05-0.641-0.066-0.961-0.039-0.426 0.082-0.68 0.254-0.762 0.52-0.105 0.402 0.028 0.762 0.403 1.082 0.32 0.293 0.636 0.41 0.957 0.359z" inkscape:connector-curvature="0"/>
      <path id="path16" style="fill-rule:evenodd;fill:#000000;fill-opacity:0.298" d="m18.52 6.16c-0.133-0.481-0.758-1.028-1.879-1.641-0.719-0.426-1.375-0.734-1.961-0.918-0.375-0.109-0.852-0.109-1.442 0-0.664 0.133-1.16 0.211-1.476 0.239-0.481 0-0.856 0.054-1.121 0.16-0.536 0.132-0.934 0.254-1.2 0.359-0.32 0.16-0.574 0.281-0.761 0.359-0.321 0.11-0.575 0.11-0.758 0-0.082-0.05-0.188-0.171-0.32-0.359-0.11-0.133-0.243-0.211-0.403-0.238-0.238-0.055-0.558-0.082-0.961-0.082-0.449 0.054-0.785 0.082-1 0.082l-1.398-0.039c-0.559-0.028-1.012-0.016-1.36 0.039-0.082 0.398 0.079 0.867 0.481 1.398l3.84 2.043c2.453 0 4.304-0.055 5.558-0.16 0.266-0.027 1.426-0.043 3.481-0.043 1.922-0.133 2.812-0.531 2.68-1.199z" inkscape:connector-curvature="0"/>
      <path id="path18" style="fill-rule:evenodd;fill:#000000;fill-opacity:0.298" d="m0.602 9.121 1.558 0.758c0.215 0.375 0.574 0.468 1.078 0.281 0.508-0.188 0.723-0.535 0.641-1.039-0.531 0-0.945-0.133-1.238-0.403-0.133-0.132-0.282-0.293-0.442-0.476-0.133-0.11-0.32-0.16-0.558-0.16-0.266-0.028-0.481-0.055-0.641-0.082-0.293 0-0.508 0.027-0.641 0.082-0.48 0.211-0.398 0.558 0.243 1.039z" inkscape:connector-curvature="0"/>
      <path id="path20" style="fill-rule:evenodd;fill:#000000;fill-opacity:0.298" d="m8.359 12.32 1.121-0.52c-0.082-0.347-0.359-0.546-0.839-0.601-0.403-0.051-0.774-0.027-1.121 0.082-0.399 0.105-0.415 0.332-0.04 0.68 0.106 0.105 0.254 0.171 0.442 0.199 0.183 0.027 0.332 0.082 0.437 0.16z" inkscape:connector-curvature="0"/>
      <path id="path22" style="fill-rule:evenodd;fill:#000000;fill-opacity:0.298" d="m18.48 16.16c0.051-0.16 0.321-0.293 0.801-0.399 0.266-0.054 0.598-0.121 1-0.203 0.719-0.293 1.133-0.476 1.239-0.558 0.773-0.508 1.187-1.758 1.242-3.758 0-0.75-0.067-1.297-0.2-1.641-0.187-0.508-0.55-0.761-1.082-0.761-0.691-0.051-1.253-0.079-1.679-0.079-0.828 0-1.36 0.157-1.602 0.481 0.055 0.023 0.149 0.078 0.281 0.156 0.051 0.481-0.347 0.856-1.199 1.121-0.269 0.055-0.441 0.094-0.519 0.121-0.137 0.078-0.242 0.215-0.321 0.399 0.079 0.187 0.106 0.32 0.079 0.402-0.106 0.426-0.454 0.652-1.04 0.68-0.668-0.082-1.105-0.106-1.32-0.082-0.879 0.109-1.894 0.16-3.039 0.16-0.375-0.027-0.68-0.039-0.922-0.039-0.426 0.055-0.691 0.215-0.801 0.48-0.078 0.215-0.039 0.387 0.122 0.52l0.48 0.199 8.48 2.801z" inkscape:connector-curvature="0"/>
      <path id="path24" style="fill-rule:evenodd;fill:#000000;fill-opacity:0.298" d="m16.801 1.519c0.238-0.16 0.359-0.371 0.359-0.64-0.027-0.266-0.148-0.481-0.359-0.637-0.215-0.137-0.508-0.215-0.879-0.242-0.375 0-0.668 0.066-0.883 0.199-0.051 0.055-0.184 0.215-0.398 0.48-0.082 0.11-0.254 0.11-0.52 0-0.535-0.187-1.094-0.187-1.68 0-0.429 0.27-0.761 0.442-1 0.52-0.214 0.082-0.386 0.148-0.519 0.199-0.215 0.082-0.348 0.203-0.402 0.363-0.161 0.426 0 0.758 0.48 1 0.348 0.184 0.695 0.278 1.039 0.278l1.68 0.64c1.093 0.11 1.734 0.016 1.922-0.281 0.078-0.078 0.121-0.383 0.121-0.918 0.023-0.426 0.133-0.668 0.316-0.719 0.137-0.054 0.375-0.136 0.723-0.242z" inkscape:connector-curvature="0"/>
      <path id="path26" style="fill-rule:evenodd;fill:#000000;fill-opacity:0.298" d="m16.078 3.679 2.281 0.641c0.829 0.055 1.149-0.359 0.961-1.238-0.082-0.348-0.293-0.551-0.64-0.602-0.399 0.027-0.692 0.039-0.879 0.039-0.403-0.051-0.735-0.078-1-0.078-0.453-0.055-0.762-0.027-0.922 0.078-0.211 0.16-0.277 0.453-0.199 0.883 0.082 0.426 0.215 0.52 0.398 0.277z" inkscape:connector-curvature="0"/>
      <path id="path28" style="fill-rule:evenodd;fill:#000000;fill-opacity:0.298" d="m33.801 10.32c0.16-0.215 0.133-0.465-0.082-0.762-0.321-0.504-1.106-0.89-2.36-1.16-0.961-0.078-1.652-0.199-2.078-0.359-0.347-0.16-0.883-0.399-1.601-0.719-0.399-0.215-0.918-0.414-1.559-0.602-0.719-0.183-1.254-0.332-1.601-0.437-0.508-0.16-1.2-0.176-2.079-0.039-0.8-0.027-1.496-0.043-2.082-0.043-1.148 0-1.691 0.187-1.64 0.562l10.562 4.079c0.426 0.054 1.254 0.015 2.481-0.122 0.746-0.078 1.426-0.211 2.039-0.398z" inkscape:connector-curvature="0"/>
      <path id="path30" style="fill-rule:evenodd;fill:#000000;fill-opacity:0.298" d="m22 2.039 2-0.239c0.32 0.051 0.547-0.066 0.68-0.359 0.132-0.293 0.082-0.562-0.16-0.801-0.266-0.293-0.907-0.332-1.918-0.121-0.723 0.082-1.122 0.336-1.2 0.762-0.027 0.238 0.024 0.426 0.16 0.559 0.129 0.16 0.278 0.226 0.438 0.199z" inkscape:connector-curvature="0"/>
      <path id="path32" style="fill-rule:evenodd;fill:#000000;fill-opacity:0.298" d="m27.281 2.961 2.719 0.117c1.012 0 1.707-0.172 2.078-0.52l-0.039-0.597c-0.961-0.454-2.305-0.68-4.039-0.68-0.348-0.027-0.613-0.039-0.801-0.039-0.347 0-0.558 0.09-0.64 0.277-0.106 0.242-0.067 0.547 0.121 0.922 0.187 0.348 0.386 0.52 0.601 0.52z" inkscape:connector-curvature="0"/>
      <path id="path34" style="fill-rule:evenodd;fill:#000000;fill-opacity:0.298" d="m33.281 10.601c0.078-0.109 0.16-0.281 0.239-0.519 0.16-0.188 0.414-0.309 0.761-0.364 1.012-0.16 1.531-0.371 1.559-0.636 0-0.16-0.078-0.293-0.238-0.403-0.082-0.05-0.215-0.117-0.403-0.199 0.11-0.105 0.336-0.281 0.68-0.519 0.242-0.266 0.242-0.52 0-0.762-0.184-0.184-0.492-0.305-0.918-0.359-0.481-0.024-0.813-0.04-1-0.04 0.051-0.558-0.32-0.718-1.121-0.48-0.906 0.266-1.387 0.359-1.438 0.281 0.078-0.133 0.184-0.32 0.321-0.558 0.078-0.215 0.089-0.442 0.039-0.684-0.11-0.371-0.348-0.691-0.723-0.957-0.371-0.27-0.851-0.426-1.437-0.48-0.188 0-0.696 0.011-1.52 0.039-0.375 0.132-0.668 0.214-0.883 0.238h-0.879c-0.558-0.078-1-0.09-1.32-0.039-0.559 0.082-0.824 0.414-0.801 1l-0.16 4.719c0.055 0.453 0.348 0.789 0.883 1 0.348 0.109 0.801 0.16 1.359 0.16 0.293-0.024 0.735-0.051 1.321-0.078 0.586 0 1.437 0.039 2.558 0.121 0.028 0 0.36 0.011 1 0.039 0.375 0.027 0.695 0.011 0.961-0.039 0.559-0.082 0.945-0.242 1.16-0.481z" inkscape:connector-curvature="0"/>
      <path id="path36" style="fill-rule:evenodd;fill:#000000;fill-opacity:0.298" d="m33.879 6.922c0.16 0.027 0.75 0.132 1.762 0.32 0.691 0.133 1.281 0.199 1.757 0.199 0.137 0 0.336 0.012 0.602 0.039 0.238 0 0.387-0.094 0.441-0.281 0.184-0.508 0-0.801-0.562-0.879-0.664 0-1.067-0.016-1.199-0.039 0.054-0.133 0.199-0.27 0.441-0.402 0.215-0.079 0.348-0.239 0.399-0.481 0.027-0.266-0.012-0.531-0.118-0.801-0.136-0.238-0.308-0.398-0.523-0.48-0.289-0.106-0.691-0.156-1.199-0.156-0.532 0.023-0.934 0.039-1.2 0.039-0.957 0-1.601 0.011-1.918 0.039-0.773 0.082-1.402 0.281-1.882 0.601-0.399 0.266-0.438 0.707-0.118 1.321 0.293 0.613 0.641 0.851 1.04 0.718l2.277 0.243z" inkscape:connector-curvature="0"/>
      <path id="path38" style="fill-rule:evenodd;fill:#7c7d80" d="m12.559 16 2.48 2.718l0.961 0.442c0.746 0.32 1.441 0.519 2.078 0.601 0.801 0.079 1.723 0.079 2.762 0 1.094-0.082 1.734-0.203 1.922-0.363 0.718-0.531 1.226-0.984 1.515-1.359 0.457-0.532 0.961-1.387 1.524-2.559 0.664-1.281 1.265-2.187 1.797-2.719 0.668-0.695 1.308-1.16 1.922-1.402l0.558-0.16c-1.012-0.906-1.652-1.414-1.918-1.52-0.215-0.105-0.855-0.214-1.922-0.32-1.117-0.105-1.812-0.117-2.078-0.039-0.293 0.082-0.894 0.348-1.801 0.801-0.961 0.48-1.601 0.84-1.921 1.078-0.293 0.215-0.68 0.586-1.161 1.121l-0.636 0.762c-0.215 0.664-0.453 1.316-0.719 1.957-0.508 1.336-0.91 2-1.203 2s-1.078-0.172-2.36-0.52l-1.8-0.519z" inkscape:connector-curvature="0"/>
      <path id="path40" style="fill-rule:evenodd;fill:#606163" d="m12.52 15.082c0.96 1.25 1.668 1.957 2.121 2.117 0.851 0.266 1.718 0.094 2.597-0.52 0.375-0.238 0.789-1.093 1.242-2.558h-1.082c-0.371 0-1.293-0.176-2.757-0.52-0.293-0.082-0.786-0.281-1.481-0.601l-1-0.442-0.961 0.684c0.403 0.586 0.84 1.199 1.321 1.84z" inkscape:connector-curvature="0"/>
      <path id="path42" style="fill-rule:evenodd;fill:#7c7d80" d="m18.078 8.84 0.121-1.641-1.039-0.598c-0.293-0.187-0.879-0.547-1.762-1.082-0.796-0.48-1.359-0.719-1.679-0.719-0.344 0-0.946 0.118-1.797 0.36-0.695 0.187-1.254 0.371-1.684 0.558-0.265 0.11-0.691 0.414-1.277 0.922l-0.84 0.719-3.84 1.559c0.344 0.242 0.719 0.48 1.117 0.722 0.829 0.477 1.43 0.719 1.801 0.719 0.613 0 1.375 0.215 2.281 0.641l1.04 0.039c0.773 0.027 1.347 0.093 1.718 0.199l1.762 0.402 0.879-0.683c0.668-0.504 1.16-0.84 1.48-1 0.215-0.102 0.786-0.477 1.719-1.117z" inkscape:connector-curvature="0"/>
      <path id="path44" style="fill-rule:evenodd;fill:#737475" d="m25.961 9.359c-0.988-0.105-1.586-0.117-1.801-0.039-0.695 0.266-1.414 0.598-2.16 1l-0.52 0.437-0.082 0.122 0.801-0.2 3.762-1.32z" inkscape:connector-curvature="0"/>
      <path id="path46" style="fill-rule:evenodd;fill:#737475" d="m25.199 14.48 0.68 0.399 0.16 0.121 0.801-1.282-0.238 0.082c-0.055-0.132-0.055-0.308 0-0.519-0.055 0.105-0.11 0.094-0.161-0.039-0.082-0.137-0.109-0.27-0.082-0.402l-0.597 0.242-0.043-0.364c-0.133-0.05-0.332-0.023-0.598 0.082-0.082-0.64 0.067-1.066 0.438-1.281 0-0.054-0.039-0.121-0.118-0.199-0.027-0.027-0.281-0.039-0.761-0.039-0.239 0.105-0.426 0.144-0.559 0.117-0.055-0.211-0.109-0.332-0.16-0.359-0.106-0.078-0.309-0.106-0.602-0.078-0.371 0.054-0.597 0.066-0.679 0.039 0-0.055-0.012-0.16-0.039-0.321-0.133-0.05-0.282-0.05-0.442 0l-0.879 0.282-0.922 1.281c0.137 0.183 0.454 0.105 0.961-0.242 0.563-0.426 0.973-0.575 1.243-0.442-0.215 0.11-0.375 0.203-0.481 0.282-0.215 0.132-0.348 0.292-0.402 0.48-0.078 0.32 0.015 0.441 0.281 0.359 0.215-0.027 0.414-0.132 0.602-0.32-0.082 0.133-0.094 0.32-0.043 0.563 0.132 0.023 0.375 0.132 0.718 0.32 0.028 0 0.254 0.039 0.684 0.117 0 0.266 0.066 0.441 0.199 0.52 0.028 0.027 0.172 0.054 0.442 0.082 0.238 0.054 0.437 0.226 0.597 0.519z" inkscape:connector-curvature="0"/>
      <path id="path48" style="fill-rule:evenodd;fill:#737475" d="m20.078 14.242c-0.211 0.316-0.371 0.543-0.476 0.68-0.082 0.773-0.122 1.183-0.122 1.238l0.68-0.602c-0.105 0.481-0.133 0.84-0.082 1.082 0.137-0.16 0.363-0.398 0.684-0.718-0.028 0.453-0.016 0.785 0.039 1l0.597-0.602c0.028 0.238-0.023 0.508-0.16 0.801l-0.359 0.719c0.828-0.454 1.336-1 1.519-1.641l0.043 1c0.133-0.078 0.293-0.293 0.481-0.641 0.156-0.343 0.305-0.558 0.437-0.636 0 0.32 0.043 0.664 0.121 1.039 0.082-0.055 0.188-0.215 0.321-0.481 0.133-0.238 0.265-0.387 0.398-0.441 0.11 0.64 0.242 0.988 0.403 1.043 0.132 0.027 0.277-0.082 0.437-0.321 0.082-0.136 0.176-0.32 0.281-0.562l0.2-0.359-0.598-0.719c-0.27-0.266-0.617-0.496-1.043-0.68-0.559-0.242-0.934-0.226-1.117 0.039l-0.043-0.199-0.481-0.039-0.039-0.524c-0.105 0.028-0.211 0.094-0.32 0.204-0.106 0.16-0.184 0.265-0.238 0.32-0.028-0.11-0.082-0.27-0.161-0.481-0.105 0.051-0.242 0.2-0.402 0.438-0.133 0.242-0.266 0.387-0.398 0.441 0-0.48-0.039-0.773-0.118-0.879-0.136 0.051-0.296 0.211-0.484 0.481z" inkscape:connector-curvature="0"/>
      <path id="path50" style="fill-rule:evenodd;fill:#666869" d="m19.641 14.242-0.039 0.68c0.105-0.137 0.265-0.364 0.476-0.68 0.188-0.27 0.348-0.43 0.484-0.481 0.079 0.106 0.118 0.399 0.118 0.879 0.132-0.054 0.265-0.199 0.398-0.441 0.16-0.238 0.297-0.387 0.402-0.438 0.082 0.211 0.133 0.371 0.161 0.481 0.05-0.055 0.132-0.16 0.238-0.32 0.109-0.11 0.215-0.176 0.32-0.204l0.039 0.524 0.481 0.039 0.043 0.199c0.183-0.265 0.558-0.281 1.117-0.039 0.426 0.184 0.773 0.414 1.043 0.68l0.598 0.719 0.082 0.082 0.437-0.922-0.16-0.121-0.68-0.399c-0.16-0.293-0.359-0.465-0.597-0.519-0.27-0.028-0.414-0.055-0.442-0.082-0.133-0.079-0.199-0.25-0.199-0.52-0.426-0.078-0.652-0.117-0.684-0.117-0.343-0.188-0.586-0.297-0.718-0.32-0.051-0.243-0.039-0.43 0.043-0.563-0.188 0.188-0.387 0.293-0.602 0.32-0.266 0.082-0.359-0.039-0.281-0.359 0.054-0.188 0.187-0.348 0.402-0.48 0.106-0.079 0.266-0.172 0.481-0.282-0.27-0.133-0.68 0.016-1.243 0.442-0.507 0.347-0.824 0.425-0.961 0.242-0.371 0.637-0.625 1.305-0.757 2z" inkscape:connector-curvature="0"/>
      <path id="path52" style="fill-rule:evenodd;fill:#666869" d="m29.52 11.359 0.558-0.16c-1.012-0.906-1.652-1.414-1.918-1.52-0.215-0.105-0.949-0.214-2.199-0.32l-3.742 1.32c0.156-0.05 0.297-0.05 0.422 0 0.023 0.161 0.039 0.266 0.039 0.321 0.082 0.027 0.308 0.015 0.679-0.039 0.293-0.028 0.493 0 0.602 0.078 0.051 0.027 0.105 0.148 0.16 0.359 0.133 0.027 0.317-0.012 0.559-0.117 0.48 0 0.734 0.012 0.758 0.039 0.082 0.078 0.121 0.145 0.121 0.199v0.321c0.027 0.105 0.132 0.187 0.32 0.242 0.082 0.027 0.226 0.011 0.441-0.043 0.157 0.027 0.317 0.109 0.481 0.242l0.84 0.437c0.691-0.691 1.32-1.144 1.879-1.359z" inkscape:connector-curvature="0"/>
      <path id="path54" style="fill-rule:evenodd;fill:#8e8f90" d="m13.84 16.359-0.442 0.563 1.641 1.796l0.961 0.442c0.746 0.32 1.441 0.519 2.078 0.601 0.801 0.079 1.723 0.079 2.762 0 1.094-0.082 1.734-0.203 1.922-0.363 0.718-0.531 1.226-0.984 1.515-1.359 0.161-0.16 0.43-0.559 0.801-1.199-0.105 0.054-0.25 0.187-0.437 0.402-0.188 0.238-0.336 0.383-0.442 0.437-0.215 0.028-0.375 0.082-0.48 0.161l-0.36 0.359c-0.425 0.242-0.734 0.414-0.918 0.519-0.269 0.11-0.535 0.149-0.8 0.122 0.16-0.161 0.254-0.321 0.281-0.481-0.133 0.027-0.336 0.106-0.602 0.242-0.265 0.16-0.48 0.25-0.64 0.278-0.348 0.054-0.547 0.082-0.602 0.082-0.133-0.082-0.277-0.121-0.437-0.121-0.161 0.027-0.321 0.027-0.481 0 0.028-0.055 0.067-0.161 0.117-0.321-0.371 0.375-0.769 0.52-1.199 0.442 0.082-0.188 0.43-0.454 1.043-0.801-0.707 0.265-1.281 0.414-1.723 0.441 0.149-0.031 0.336-0.136 0.563-0.32 0.16-0.133 0.371-0.32 0.641-0.563 0.265-0.16 0.492-0.476 0.679-0.957 0.078-0.136 0.145-0.336 0.199-0.601 0-0.051 0.04-0.465 0.122-1.238l0.039-0.68c0.132-0.695 0.386-1.363 0.757-2l0.922-1.281 0.078-0.082 0.082-0.118 0.52-0.441-1.559 0.879c-0.293 0.215-0.679 0.586-1.16 1.121l-0.64 0.762c-0.215 0.664-0.453 1.316-0.719 1.957-0.508 1.336-0.91 2-1.203 2-0.239 0-1.199-0.227-2.879-0.68z" inkscape:connector-curvature="0"/>
      <path id="path56" style="fill-rule:evenodd;fill:#404142" d="m12.52 15.082c0.96 1.25 1.668 1.957 2.121 2.117 0.851 0.266 1.718 0.094 2.597-0.52 0.242-0.16 0.563-0.718 0.961-1.679-1.387-0.055-2.547-0.172-3.48-0.36-0.692-0.16-1.199-0.695-1.52-1.601l-1.039-0.481-0.961 0.684c0.403 0.586 0.84 1.199 1.321 1.84z" inkscape:connector-curvature="0"/>
      <path id="path58" style="fill-rule:evenodd;fill:#737475" d="m18.078 8.84 0.043-0.598-0.762-0.043c0-0.133 0.055-0.281 0.161-0.438-0.239-0.187-0.614-0.296-1.122-0.32-0.664 0-1.05-0.016-1.16-0.043-0.426-0.078-0.691-0.199-0.797-0.359 0.059-0.059 0.125-0.098 0.2-0.117-0.496 0.043-0.911-0.024-1.243-0.204l0.524-0.199-0.481-0.121c-0.242-0.023-0.546-0.117-0.921-0.277 0.132 0.238 0.308 0.386 0.519 0.437 0.375 0.16 0.867 0.453 1.481 0.883 0.375 0.184 0.679 0.359 0.921 0.52 0.454 0.265 0.704 0.492 0.758 0.679-0.344-0.027-0.851-0.226-1.519-0.601-0.641-0.371-1.149-0.574-1.52-0.598-0.398-0.055-0.68-0.109-0.84-0.16l-0.242-0.242h-0.437c-0.426-0.078-0.774-0.117-1.039-0.117-0.934 0-1.204-0.215-0.801-0.641l-0.16-0.199c-0.481 0.398-0.829 0.679-1.039 0.84h0.277l0.082 0.117-0.481 0.679c0.161-0.023 0.293-0.023 0.399 0-0.051 0.11-0.106 0.188-0.16 0.243 0.027 0 0.254-0.082 0.679-0.243 0.321-0.132 0.547-0.144 0.68-0.039 0.027 0.082 0.016 0.2-0.039 0.36 0.508-0.371 0.867-0.492 1.082-0.36 0.078 0.188 0.051 0.36-0.082 0.52 0.215 0 0.535-0.051 0.961-0.16 0.398-0.133 0.707-0.199 0.922-0.199l0.476 0.121v0.359c0.137 0.027 0.457 0.055 0.961 0.082 0.403 0.051 0.403 0.25 0 0.598l0.121 0.359c0.161 0.027 0.387 0.043 0.68 0.043 0.028 0.133-0.082 0.359-0.32 0.68-0.266 0.425-0.414 0.664-0.442 0.718 0.082 0.082 0.254 0.122 0.524 0.122l1.558-1.04c0.079-0.269 0.067-0.507-0.039-0.722 0.161-0.106 0.559-0.106 1.2 0l0.437-0.32z" inkscape:connector-curvature="0"/>
      <path id="path60" style="fill-rule:evenodd;fill:#666869" d="m11.441 5.922-0.242-0.563-0.961 0.359c-0.05 0.028-0.25 0.149-0.597 0.36l0.16 0.203c-0.403 0.426-0.133 0.637 0.801 0.637 0.265 0 0.613 0.043 1.039 0.121h0.437l0.242 0.242c0.16 0.051 0.442 0.105 0.84 0.16 0.371 0.024 0.879 0.223 1.52 0.598 0.668 0.375 1.175 0.574 1.519 0.601-0.054-0.187-0.304-0.414-0.758-0.679-0.242-0.161-0.546-0.336-0.921-0.52-0.614-0.43-1.106-0.723-1.481-0.883-0.211-0.051-0.387-0.199-0.519-0.441-0.426-0.156-0.786-0.223-1.079-0.195z" inkscape:connector-curvature="0"/>
      <path id="path62" style="fill-rule:evenodd;fill:#666869" d="m16.441 9.16c0.106 0.215 0.118 0.453 0.039 0.719l1.161-0.719c-0.641-0.106-1.039-0.106-1.2 0z" inkscape:connector-curvature="0"/>
      <path id="path64" style="fill-rule:evenodd;fill:#8e8f90" d="m18.199 7.199-1.039-0.598c-0.293-0.187-0.879-0.547-1.762-1.082-0.796-0.48-1.359-0.719-1.679-0.719-0.321 0-1.16 0.188-2.52 0.559l0.242 0.559c0.293-0.024 0.653 0.043 1.079 0.203 0.375 0.16 0.679 0.254 0.921 0.277l0.2 0.043 0.8-0.082c0.321 0 0.571 0.027 0.758 0.082 0.293 0.078 0.774 0.32 1.442 0.719 0.613 0.293 1.105 0.332 1.48 0.121l0.078-0.082z" inkscape:connector-curvature="0"/>
      <path id="path66" style="fill-rule:evenodd;fill:#8e8f90" d="m14 11.64 0.121-0.121-0.562-0.398-0.278-0.281c-0.082-0.079-0.203-0.106-0.359-0.079 0.023-0.082 0.012-0.242-0.043-0.48-0.293 0-0.52-0.016-0.68-0.039 0-0.082 0.055-0.215 0.16-0.402 0.082-0.188 0.121-0.333 0.121-0.442-0.347 0.16-0.613 0.281-0.8 0.363-0.375 0.161-0.653 0.2-0.84 0.118 0.133-0.211 0.226-0.332 0.281-0.36-0.402 0.133-0.707 0.227-0.922 0.281-0.371 0.106-0.679 0.133-0.918 0.079l0.199-0.481c-0.187-0.078-0.601-0.039-1.242 0.121-0.558 0.106-0.957 0.067-1.199-0.121 0.082-0.078 0.133-0.211 0.16-0.398 0.055-0.082 0.254-0.254 0.602-0.52 0.211-0.16 0.437-0.414 0.679-0.762l0.481-0.679-0.082-0.117h-0.277l-0.481 0.437-3.84 1.563c0.344 0.238 0.719 0.48 1.117 0.718 0.829 0.481 1.43 0.719 1.801 0.719 0.613 0 1.375 0.215 2.281 0.641l1.04 0.039c0.773 0.027 1.347 0.093 1.718 0.203l1.762 0.398z" inkscape:connector-curvature="0"/>
      <path id="path68" style="fill-rule:evenodd;fill:#504f52" d="m13.32 17.761c0.801 0.746 1.375 1.067 1.719 0.957 0.32-0.078 0.906-0.371 1.762-0.878 0.801-0.454 1.32-0.786 1.558-1 0.188-0.161 0.453-0.735 0.801-1.719 0.32-0.879 0.559-1.668 0.719-2.36 0.187-0.8 1.055-1.668 2.601-2.601l-0.679-2.039c-1.469 1.039-2.336 1.719-2.602 2.039-0.238 0.265-0.504 0.719-0.801 1.359-0.343 0.668-0.586 1.242-0.718 1.723-0.106 0.426-0.348 1.012-0.719 1.758l-0.52 1c-0.402 0.027-0.828 0.015-1.281-0.039-0.933-0.133-1.574-0.414-1.922-0.84-0.531-0.668-0.89-1.52-1.078-2.563h-2.199c-0.188 0-0.43 0.082-0.723 0.242l-0.398 0.282c0.105 0.133 0.238 0.277 0.398 0.437 0.321 0.293 0.641 0.442 0.961 0.442 0.375 0 0.629 0.105 0.762 0.32 0.211 0.453 0.426 0.906 0.641 1.359 0.343 0.692 0.918 1.399 1.718 2.121z" inkscape:connector-curvature="0"/>
      <path id="path70" style="fill-rule:evenodd;fill:#504f52" d="m18.199 7.48 0.16-1.238c-1.359-0.75-2.16-1.137-2.398-1.16l-2.762-1.043c-2.054 0.269-3.48 0.613-4.277 1.043-0.961 0.449-1.684 0.812-2.16 1.078-0.883 0.453-1.403 0.816-1.563 1.082l-0.918 1.68 1.719-0.243 3.719-2.078c0.375-0.187 0.773-0.386 1.203-0.601 0.316-0.133 0.68-0.227 1.078-0.282l1.84-0.277 2 0.801c0.453 0.156 1.121 0.492 2 1l0.359 0.238z" inkscape:connector-curvature="0"/>
      <path id="path72" style="fill-rule:evenodd;fill:#48474a" d="m13.16 17.64c0.934 0.825 1.559 1.188 1.879 1.078 0.32-0.078 0.906-0.371 1.762-0.878 0.801-0.454 1.32-0.786 1.558-1 0.161-0.133 0.403-0.614 0.719-1.442-0.105-0.051-0.223-0.051-0.359 0-0.133 0.082-0.199 0.188-0.199 0.32-0.028 0.215-0.051 0.364-0.079 0.442-0.187 0.426-1.027 0.68-2.519 0.762 0.211 0 0.305 0.093 0.277 0.277-0.027 0.109-0.121 0.176-0.277 0.199-0.16 0-0.27 0.016-0.32 0.043-0.161 0.051-0.254 0.133-0.282 0.238l-0.121 0.282c-0.211 0.32-0.558 0.371-1.039 0.16-0.133-0.055-0.293-0.199-0.48-0.442-0.16-0.214-0.305-0.332-0.442-0.359l-0.078 0.32z" inkscape:connector-curvature="0"/>
      <path id="path74" style="fill-rule:evenodd;fill:#48474a" d="m19.602 13.718 0.277-0.957c0.187-0.8 1.055-1.668 2.601-2.601l-0.679-2.039c-1.469 1.039-2.336 1.719-2.602 2.039-0.238 0.265-0.504 0.719-0.801 1.359-0.343 0.668-0.586 1.242-0.718 1.723l-0.121 0.316 0.32-0.558c0.133-0.239 0.266-0.414 0.402-0.52l-0.441 0.961c0.293-0.586 0.465-0.906 0.519-0.961l-0.039 0.442c0.133-0.11 0.282-0.321 0.442-0.641 0.144-0.293 0.265-0.5 0.359-0.621-0.109 0.14-0.16 0.336-0.16 0.582l0.199-0.402c0.078 0.242 0.094 0.64 0.039 1.199 0.028-0.133 0.11-0.266 0.242-0.399 0.106 0.215 0.161 0.575 0.161 1.078z" inkscape:connector-curvature="0"/>
      <path id="path76" style="fill-rule:evenodd;fill:#48474a" d="m10.199 13.961h0.121v-0.243c0.133-0.023 0.305 0.016 0.52 0.122v-0.239c0.133-0.027 0.265 0.039 0.398 0.199l0.043-0.199c0.133 0.051 0.211 0.094 0.239 0.117 0.187-0.371 0.507-0.359 0.96 0.043-0.16-0.429-0.265-0.828-0.32-1.203h-2.199c-0.188 0-0.43 0.082-0.723 0.242l-0.398 0.282c0.105 0.133 0.238 0.277 0.398 0.437 0.321 0.293 0.641 0.442 0.961 0.442z" inkscape:connector-curvature="0"/>
      <path id="path78" style="fill-rule:evenodd;fill:#48474a" d="m17.84 7.242 0.359 0.238 0.16-1.238c-1.359-0.75-2.16-1.137-2.398-1.16l-2.359-0.922 0.039 0.281 0.039 1h0.16l2 0.801c0.453 0.156 1.121 0.492 2 1z" inkscape:connector-curvature="0"/>
      <path id="path80" style="fill-rule:evenodd;fill:#48474a" d="m9.922 6.519 0.398-0.48c-0.668 0.453-1.039 0.695-1.121 0.722-0.265 0.106-0.64 0.211-1.121 0.317-0.531 0.137-0.906 0.242-1.117 0.32 0.051-0.18 0.195-0.344 0.437-0.5-0.695 0.414-1.175 0.567-1.437 0.461-0.481 0.348-0.75 0.586-0.801 0.719h1.16c0.055 0 0.149 0.039 0.282 0.121 0.183-0.027 0.464-0.16 0.839-0.402 0.371-0.266 0.637-0.426 0.797-0.481l-0.039 0.121 1.52-0.84 0.203-0.078z" inkscape:connector-curvature="0"/>
      <path id="path82" style="fill-rule:evenodd;fill:#48474a" d="m10.961 6c0.293-0.133 0.641-0.227 1.039-0.282l1.801-0.277h-0.121c-0.106-0.027-0.305-0.043-0.602-0.043-0.266 0.027-0.476 0.016-0.637-0.039l0.161-0.199c-0.297-0.055-0.657-0.067-1.082-0.039-0.426 0.078-0.747 0.199-0.961 0.359l0.48 0.039c-0.238 0.082-0.48 0.254-0.719 0.52l-0.398 0.48c0.586-0.32 0.933-0.492 1.039-0.519z" inkscape:connector-curvature="0"/>
      <path id="path84" style="fill-rule:evenodd;fill:#3f3e40" d="m8.199 7.441 0.039-0.121c-0.16 0.055-0.426 0.215-0.797 0.48-0.375 0.243-0.652 0.375-0.839 0.399-0.137-0.078-0.227-0.117-0.282-0.117h-1.16c0.051-0.133 0.32-0.375 0.801-0.723 0.504-0.344 0.719-0.652 0.641-0.918l-0.243-0.039h-0.039c-0.64 0.398-1.015 0.68-1.121 0.84l-0.918 1.68 1.719-0.243 2.199-1.238z" inkscape:connector-curvature="0"/>
      <path id="path86" style="fill-rule:evenodd;fill:#63676b" d="m34.121 15.039c0.641 0.187 1.156 0.281 1.559 0.281 0.531 0 0.972-0.293 1.32-0.879 0.371-0.613 0.426-1.281 0.16-2-0.215-0.613-0.613-1.027-1.199-1.242l-0.801-0.16-3.16 3.441 2.121 0.559z" inkscape:connector-curvature="0"/>
      <g id="g88">
        <g id="g90">
          <g id="g96">
            <path id="path112" style="fill-rule:evenodd;fill:url(#linearGradient98)" d="m28.078 15c0.11 0.265 0.414 0.48 0.922 0.64 0.238 0.106 0.465 0.172 0.68 0.2h1.359c0.453 0 1.188-0.122 2.199-0.36 0.774-0.105 1.723-0.16 2.84-0.16-0.797-0.426-1.238-1.066-1.316-1.922v-0.117c-0.082-0.348-0.055-0.734 0.078-1.16 0-0.348 0.109-0.707 0.32-1.082-0.906 0.48-2.359 0.84-4.359 1.082l-2.039 0.16-0.403 0.359c-0.214 0.16-0.347 0.508-0.398 1.039-0.055 0.536-0.016 0.973 0.117 1.321z" inkscape:connector-curvature="0"/>
          </g>
        </g>
      </g>
      <path id="path114" style="fill-rule:evenodd;fill:#63676b" d="m24.398 9.121c-1.41-2.188-2.679-3.133-3.796-2.84-0.911 0.211-1.414 0.934-1.524 2.16-0.051 0.746 0.16 1.387 0.641 1.918l0.719 0.602 1.484 0.039 2.476-1.879z" inkscape:connector-curvature="0"/>
      <g id="g116">
        <g id="g118">
          <g id="g124">
            <path id="path140" style="fill-rule:evenodd;fill:url(#linearGradient126)" d="m31.281 14.199c0.664 0.082 1.145 0.027 1.442-0.16 0.449-0.293 0.664-0.934 0.636-1.918-0.023-0.586-0.265-1.215-0.718-1.879-0.692-0.242-1.442-0.524-2.239-0.844-1.629-0.613-2.722-1.066-3.281-1.359-0.933-0.481-2.734-1.067-5.398-1.758l0.437 0.199c0.215 0.133 0.332 0.559 0.36 1.281 0 0.774-0.118 1.438-0.36 2-0.238 0.504-0.746 0.84-1.519 1l-1.079 0.121 3.758 0.438c0.746 0.105 3.399 1.066 7.961 2.879z" inkscape:connector-curvature="0"/>
          </g>
        </g>
      </g>
      <path id="path142" style="fill-rule:evenodd;fill:#717275" d="m28.801 6.64 1.16 0.52 0.277-1.442-0.117-0.277c-0.16-0.266-0.359-0.519-0.601-0.762-0.426-0.425-1.149-0.64-2.161-0.64-1.199 0.187-1.972 0.293-2.32 0.32-0.184 0.027-0.414 0.188-0.68 0.481l-0.359 0.48 0.078 1.082 4.723 0.238z" inkscape:connector-curvature="0"/>
      <path id="path144" style="fill-rule:evenodd;fill:#59595c" d="m24.879 5.199c0.242-0.348 0.547-0.574 0.922-0.68 1.547-0.398 2.664 0.039 3.359 1.321 0.16 0.265 0.238 0.613 0.238 1.039l0.563 0.281 0.277-1.442-0.117-0.277c-0.16-0.266-0.359-0.519-0.601-0.762-0.426-0.425-1.149-0.64-2.161-0.64-1.199 0.187-1.972 0.293-2.32 0.32-0.184 0.027-0.414 0.188-0.68 0.481l-0.359 0.48 0.078 1.082h0.481c0-0.43 0.109-0.828 0.32-1.203z" inkscape:connector-curvature="0"/>
      <path id="path146" style="fill-rule:evenodd;fill:#aeafb3" d="m26.641 7.8c1.652 0.348 2.707 0.293 3.16-0.16 0.293-0.293 0.332-0.679 0.121-1.16-0.348-0.801-1.07-1.281-2.16-1.441-0.59-0.051-1.043-0.051-1.364 0-0.265 0.054-0.492 0.093-0.679 0.121-0.348 0.055-0.692 0.187-1.039 0.398-0.403 0.27-0.602 0.547-0.602 0.84 0 0.27 0.43 0.574 1.281 0.922 0.426 0.187 0.856 0.348 1.282 0.48z" inkscape:connector-curvature="0"/>
      <path id="path148" style="fill-rule:evenodd;fill:#7e7f82" d="m26.16 6.8 1.117 0.641c0.188 0 0.469 0.012 0.844 0.039 0.371 0.027 0.652 0.012 0.84-0.039 0.027-0.453-0.039-0.867-0.199-1.242-0.215-0.426-0.496-0.68-0.84-0.758-0.297-0.109-0.695-0.066-1.203 0.117-0.719 0.321-0.907 0.735-0.559 1.242z" inkscape:connector-curvature="0"/>
      <path id="path150" style="fill-rule:evenodd;fill:#a8a9ad" d="m26.398 18.519c0.055 0.106 0.137 0.215 0.243 0.321 0.187 0.242 0.425 0.359 0.718 0.359 0.426 0 0.868-0.293 1.321-0.879l-0.758-1.68c-0.508-1.148-0.762-1.812-0.762-2 0-0.265-0.094-0.586-0.281-0.961l0.68-3.757 0.921-3.043c0.239-0.504-0.015-0.825-0.761-0.957-0.453-0.082-0.84-0.028-1.16 0.16l-0.321 0.277c-0.265 2.801-0.426 4.668-0.476 5.602l-0.203 1.839 0.839 4.719z" inkscape:connector-curvature="0"/>
      <path id="path152" style="fill-rule:evenodd;fill:#8b8b8f" d="m26.441 14 0.637 2.84c0.11 0.746 0.149 1.148 0.121 1.199l0.961 0.801 0.52-0.52-0.121-0.238-0.719-0.282c-0.238-0.347-0.531-1.226-0.879-2.64l-0.242-0.84c-0.184-0.559-0.281-0.934-0.281-1.121 0-0.293 0.093-0.879 0.281-1.758 0.109-0.375 0.293-1.613 0.558-3.723 0.028-0.156 0.055-0.398 0.082-0.718 0-0.266-0.082-0.453-0.238-0.559-0.133-0.109-0.414-0.16-0.844-0.16l-0.039 0.078-0.117 1.121 0.399 0.238c0.265 0.215 0.425 0.59 0.48 1.122 0.027 0.214-0.027 0.746-0.16 1.601-0.028 0.426-0.106 0.867-0.238 1.32-0.215 0.504-0.321 0.852-0.321 1.039l0.16 0.239-0.043 0.32c-0.023 0.215-0.011 0.426 0.043 0.641z" inkscape:connector-curvature="0"/>
      <path id="path154" style="fill-rule:evenodd;fill:#5c5c5e" d="m26.961 15.16c0.348 1.414 0.641 2.293 0.879 2.64l0.719 0.282c-0.934-1.973-1.399-3.121-1.399-3.442 0-0.265-0.094-0.586-0.281-0.961l0.68-3.757 0.921-3.043c0.239-0.504-0.015-0.825-0.761-0.957-0.692-0.133-1.172-0.016-1.442 0.359 0.43 0 0.711 0.051 0.844 0.16 0.156 0.106 0.238 0.293 0.238 0.559-0.027 0.32-0.05 0.558-0.082 0.718-0.265 2.11-0.449 3.348-0.558 3.723-0.184 0.879-0.281 1.465-0.281 1.758 0 0.187 0.093 0.558 0.281 1.121l0.242 0.84z" inkscape:connector-curvature="0"/>
      <path id="path156" style="fill-rule:evenodd;fill:#c4c5c9" d="m27.078 17.84c-0.289 0.082-0.504 0.32-0.637 0.718 0 0.082 0.079 0.188 0.239 0.321 0.187 0.214 0.414 0.32 0.679 0.32 0.43 0 0.868-0.293 1.321-0.879l-0.2-0.398-0.199-0.082c-0.508-0.106-0.906-0.106-1.203 0z" inkscape:connector-curvature="0"/>
      <path id="path158" style="fill-rule:evenodd;fill:#644618" d="m0.48 9.242 1.961 0.398c0-0.453-0.054-0.773-0.16-0.961-0.109-0.238-0.32-0.398-0.64-0.48-0.426-0.078-0.746-0.024-0.961 0.16-0.133 0.106-0.2 0.227-0.2 0.359v0.524z" inkscape:connector-curvature="0"/>
      <path id="path160" style="fill-rule:evenodd;fill:#644618" d="m0.078 7.32 1.242 0.121c0.239-0.082 0.375-0.254 0.399-0.519 0.027-0.215 0.015-0.375-0.039-0.481-0.055-0.055-0.172-0.109-0.36-0.16-0.242-0.055-0.652 0.039-1.242 0.277v0.762z" inkscape:connector-curvature="0"/>
      <path id="path162" style="fill-rule:evenodd;fill:#504f52" d="m2.68 5.64 3.398 0.121c0.59 0 0.961-0.093 1.121-0.281 0.188-0.16 0.254-0.48 0.199-0.961-0.16-0.027-0.906-0.039-2.238-0.039-1.281 0-2 0.012-2.16 0.039-0.055 0.613-0.16 0.988-0.32 1.121z" inkscape:connector-curvature="0"/>
      <path id="path164" style="fill-rule:evenodd;fill:#644618" d="m13.922 3.558 0.437-0.597c0.055-0.188 0.067-0.321 0.039-0.403 0-0.051-0.05-0.144-0.16-0.277l-0.398-0.723c-0.16-0.343-0.305-0.547-0.442-0.597-0.132-0.055-0.437 0-0.918 0.16l-0.96 0.238c-0.161 0-0.305 0.055-0.442 0.16-0.133 0.293-0.223 0.492-0.277 0.602-0.16 0.398-0.227 0.746-0.199 1.039l3.32 0.398z" inkscape:connector-curvature="0"/>
      <path id="path166" style="fill-rule:evenodd;fill:#644618" d="m14.641 1.48 0.718 0.399c0.133-0.133 0.266-0.239 0.403-0.317 0.078-0.082 0.117-0.269 0.117-0.562 0-0.508-0.106-0.813-0.32-0.918-0.293-0.133-0.586 0.011-0.879 0.437-0.293 0.453-0.305 0.774-0.039 0.961z" inkscape:connector-curvature="0"/>
      <path id="path168" style="fill-rule:evenodd;fill:#644618" d="m21.602 2.199 1.757-0.16c0.348-0.024 0.481-0.492 0.403-1.399-0.856-0.082-1.414-0.054-1.684 0.078-0.238 0.11-0.414 0.309-0.519 0.602-0.161 0.32-0.145 0.613 0.043 0.879z" inkscape:connector-curvature="0"/>
      <path id="path170" style="fill-rule:evenodd;fill:#644618" d="m26.879 2.32 4.121 0.762c0-0.453-0.027-0.723-0.078-0.801-0.055-0.082-0.27-0.188-0.645-0.32-0.929-0.375-1.437-0.559-1.515-0.559-1.414-0.109-2.043 0.199-1.883 0.918z" inkscape:connector-curvature="0"/>
      <path id="path172" style="fill-rule:evenodd;fill:#504f52" d="m36.559 6.039v-1.278c-0.293-0.027-0.504-0.054-0.637-0.082-0.242-0.027-0.442-0.082-0.602-0.16-0.242-0.105-0.547-0.172-0.922-0.199-0.531-0.027-0.851-0.055-0.957-0.082-0.375-0.051-0.586-0.078-0.64-0.078-0.215 0-0.442 0.078-0.68 0.238-0.508 0.453-0.922 0.75-1.242 0.883v1l5.68-0.242z" inkscape:connector-curvature="0"/>
      <path id="path174" style="fill-rule:evenodd;fill:#644618" d="m37.039 7.199 1.281-0.117c0.082-0.59-0.347-0.801-1.281-0.641v0.758z" inkscape:connector-curvature="0"/>
      <path id="path176" style="fill-rule:evenodd;fill:#644618" d="m34.32 9.16c0.106-0.106 0.145-0.332 0.118-0.68-0.051-0.348-0.133-0.586-0.239-0.719-0.105-0.16-0.293-0.281-0.558-0.363-0.27-0.078-0.496-0.09-0.68-0.039-0.43 0.106-0.84 0.359-1.242 0.762-0.16 0.16-0.266 0.371-0.321 0.64v0.797l2.922-0.398z" inkscape:connector-curvature="0"/>
      <path id="path178" style="fill-rule:evenodd;fill:#7d581e" d="m27.16 4.359c0.078 0.242 0.266 0.332 0.559 0.281 0.32-0.082 0.855-0.308 1.601-0.679 0.133-0.055 0.371-0.161 0.719-0.321 0.293-0.109 0.52-0.082 0.68 0.078l0.519-0.757c-0.636-0.055-1.05-0.11-1.238-0.161-0.559-0.214-0.988-0.359-1.281-0.441-0.559-0.184-1-0.254-1.321-0.199-0.293 0.055-0.425 0.226-0.398 0.519 0.055 0.375 0.078 0.668 0.078 0.879 0.027 0.481 0.055 0.75 0.082 0.801z" inkscape:connector-curvature="0"/>
      <path id="path180" style="fill-rule:evenodd;fill:#7d581e" d="m23.48 2.441 0.2-0.762c-0.188-0.238-0.52-0.293-1-0.16-0.532 0.16-0.891 0.254-1.078 0.281-0.028 0.293 0.011 0.481 0.117 0.559 0.054 0.055 0.215 0.082 0.48 0.082h1.281z" inkscape:connector-curvature="0"/>
      <path id="path182" style="fill-rule:evenodd;fill:#7d581e" d="m15.762 2.16 0.117-1.16c-0.211-0.215-0.453-0.309-0.719-0.282-0.32 0.028-0.535 0.2-0.64 0.52-0.106 0.375 0.015 0.629 0.359 0.762 0.133 0.054 0.426 0.105 0.883 0.16z" inkscape:connector-curvature="0"/>
      <path id="path184" style="fill-rule:evenodd;fill:#63676b" d="m2.762 5.519 0.16 0.762 0.277 0.117 0.922 0.52c1.117 0.429 2.254-0.078 3.399-1.52l-4.758 0.121z" inkscape:connector-curvature="0"/>
      <path id="path186" style="fill-rule:evenodd;fill:#7d581e" d="m2.68 9.761-0.641-0.921c-0.426-0.051-0.746-0.067-0.961-0.04-0.344 0.028-0.558 0.215-0.637 0.559 0.161 0.188 0.52 0.309 1.079 0.359 0.402 0.055 0.785 0.067 1.16 0.043z" inkscape:connector-curvature="0"/>
      <path id="path188" style="fill-rule:evenodd;fill:#7d581e" d="m1.52 7.558 0.199-0.519c-0.453-0.266-0.824-0.348-1.117-0.239-0.161 0.055-0.364 0.266-0.602 0.641 0.215 0.106 0.465 0.16 0.762 0.16 0.16 0 0.41-0.015 0.758-0.043z" inkscape:connector-curvature="0"/>
      <path id="path190" style="fill-rule:evenodd;fill:#7d581e" d="m8.559 12.32 0.402-0.641c-0.106-0.214-0.32-0.293-0.641-0.238-0.375 0.078-0.625 0.117-0.761 0.117-0.106 0.43-0.039 0.684 0.203 0.762 0.133 0.055 0.398 0.055 0.797 0z" inkscape:connector-curvature="0"/>
      <path id="path192" style="fill-rule:evenodd;fill:#7d581e" d="m34.32 9.922 0.282-1.403c-0.137-0.027-0.321-0.133-0.563-0.32-0.238-0.184-0.426-0.293-0.559-0.317-0.105-0.027-0.414 0.051-0.918 0.239-0.484 0.133-0.816 0.293-1 0.48-0.32 0.266-0.441 0.668-0.363 1.199 0.27 0.055 0.789 0.055 1.563 0 0.664-0.054 1.183-0.015 1.558 0.122z" inkscape:connector-curvature="0"/>
      <path id="path194" style="fill-rule:evenodd;fill:#7d581e" d="m35.559 12.121 0.519-0.922c-0.371-0.027-0.664-0.039-0.879-0.039-0.371 0-0.64 0.055-0.801 0.16-0.023 0.398 0.094 0.652 0.364 0.762 0.105 0.023 0.371 0.039 0.797 0.039z" inkscape:connector-curvature="0"/>
      <path id="path196" style="fill-rule:evenodd;fill:#63676b" d="m34.281 8.601 2.598-2.562c-0.426-0.024-0.957-0.117-1.598-0.278-0.719-0.242-1.254-0.402-1.601-0.48-0.348-0.133-0.614-0.176-0.801-0.121-0.238 0.055-0.598 0.215-1.078 0.48-0.535 0.321-0.813 0.586-0.84 0.801 0 0.184 0.117 0.438 0.359 0.758 0.481 0.719 0.918 1.109 1.321 1.16h0.839c0.348 0.027 0.614 0.106 0.801 0.242z" inkscape:connector-curvature="0"/>
      <path id="path198" style="fill-rule:evenodd;fill:#7d581e" d="m37.52 7.718 0.718-0.636c-0.05 0-0.211-0.055-0.48-0.16-0.238-0.082-0.52-0.067-0.84 0.039-0.027 0.398 0.027 0.64 0.16 0.718 0.027 0.028 0.176 0.039 0.442 0.039z" inkscape:connector-curvature="0"/>
      <path id="path200" style="fill-rule:evenodd;fill:#7c7d80" d="m36.801 10.121c0.027-0.266 0.011-0.496-0.039-0.68-0.082-0.426-0.27-0.762-0.563-1-0.211-0.215-0.48-0.32-0.801-0.32-0.425-0.133-0.73-0.172-0.918-0.121-0.375 0.109-0.652 0.242-0.839 0.402-0.266 0.16-0.442 0.492-0.52 1-0.109 0.586-0.148 1.066-0.121 1.438 0.16 0.855 0.227 1.453 0.199 1.8l3.563-1.8c0-0.133 0.011-0.375 0.039-0.719z" inkscape:connector-curvature="0"/>
      <path id="path202" style="fill-rule:evenodd;fill:#7c7d80" d="m5.281 3 2.598-0.36c0-0.054 0.027-0.265 0.082-0.64 0.051-0.239 0-0.414-0.16-0.52-0.106-0.082-0.336-0.105-0.68-0.082-0.375 0.055-0.613 0.082-0.723 0.082-0.691 0-1.066 0.508-1.117 1.52z" inkscape:connector-curvature="0"/>
      <path id="path204" style="fill-rule:evenodd;fill:#7c7d80" d="m15.039 4.082h3.441c0.266-0.43 0.133-0.867-0.402-1.321-0.453-0.375-0.879-0.586-1.277-0.64-0.481-0.055-0.906 0.105-1.281 0.48-0.348 0.371-0.508 0.864-0.481 1.481z" inkscape:connector-curvature="0"/>
      <path id="path206" style="fill-rule:evenodd;fill:#aeafb3" d="m18.68 3.8-1.239-0.878h-1.121c-0.132 0.027-0.293 0.105-0.48 0.238-0.16 0.16-0.371 0.426-0.641 0.801 0.055 0.105 0.348 0.214 0.879 0.32 0.137 0.051 0.309 0.117 0.524 0.199 0.183 0.051 0.359 0.16 0.519 0.32 0.238 0.321 0.387 0.52 0.438 0.598 0.109 0.133 0.242 0.067 0.402-0.199 0.184-0.266 0.426-0.734 0.719-1.399z" inkscape:connector-curvature="0"/>
      <path id="path208" style="fill-rule:evenodd;fill:#aeafb3" d="m7.559 3 0.519-0.758c-0.613-0.055-1.078-0.094-1.398-0.121-0.559-0.028-0.985 0.187-1.282 0.64 0.11 0.321 0.43 0.454 0.961 0.399 0.293-0.028 0.696-0.078 1.2-0.16z" inkscape:connector-curvature="0"/>
      <path id="path210" style="fill-rule:evenodd;fill:#aeafb3" d="m2.559 10.398 0.402-0.398v-0.2c-0.16-0.082-0.348-0.082-0.563 0-0.238 0.079-0.359 0.227-0.359 0.442 0.133 0.105 0.309 0.156 0.52 0.156z" inkscape:connector-curvature="0"/>
      <path id="path212" style="fill-rule:evenodd;fill:#aeafb3" d="m33.32 10.199c-0.132 1.308-0.16 2.176-0.082 2.601 0.082 0.372 0.254 0.52 0.52 0.442 0.215-0.055 0.496-0.402 0.84-1.043 0.668-0.719 1.347-1.051 2.043-1l-0.719-1.641c-0.43-0.238-0.75-0.398-0.961-0.476-0.348-0.133-0.652-0.11-0.922 0.078-0.293 0.105-0.492 0.226-0.598 0.359-0.082 0.106-0.121 0.336-0.121 0.68z" inkscape:connector-curvature="0"/>
    </g>
  </g>
<metadata><rdf:RDF><cc:Work><dc:format>image/svg+xml</dc:format><dc:type rdf:resource="http://purl.org/dc/dcmitype/StillImage"/><cc:license rdf:resource="http://creativecommons.org/licenses/publicdomain/"/><dc:publisher><cc:Agent rdf:about="http://openclipart.org/"><dc:title>Openclipart</dc:title></cc:Agent></dc:publisher></cc:Work><cc:License rdf:about="http://creativecommons.org/licenses/publicdomain/"><cc:permits rdf:resource="http://creativecommons.org/ns#Reproduction"/><cc:permits rdf:resource="http://creativecommons.org/ns#Distribution"/><cc:permits rdf:resource="http://creativecommons.org/ns#DerivativeWorks"/></cc:License></rdf:RDF></metadata></svg>
