<svg width="72" height="111" viewBox="0 0 72 111" fill="none" xmlns="http://www.w3.org/2000/svg">
<rect y="9" width="71.1193" height="102" fill="#040F16"/>
<path d="M16.8711 39.0547H22.2583L36 73.2505L49.7129 39.0547H55.1289L38.0742 81H33.8682L16.8711 39.0547ZM15.1138 39.0547H19.8672L20.645 64.6367V81H15.1138V39.0547ZM52.104 39.0547H56.8574V81H51.3262V64.6367L52.104 39.0547Z" fill="#F39C12"/>
<path d="M60.3844 96.6971C59.5109 96.7924 58.5403 96.7769 57.4728 96.6505C51.9512 95.9949 44.5031 92.4342 36.5008 86.6246C28.4985 80.815 20.8979 73.45 15.0992 65.8871C12.2744 62.2029 10.0294 58.6687 8.42648 55.3825C6.72942 51.9036 5.81561 48.8095 5.71039 46.1866C5.50547 41.0766 8.46826 39.6306 10.9898 39.3174L11.0711 40.0549C7.60836 40.485 5.78141 42.7184 5.92683 46.3438C6.11199 50.9611 9.45902 57.8361 15.1097 65.2062C20.8957 72.7525 28.4823 80.1031 36.4719 85.9037C44.4615 91.704 51.8959 95.2587 57.4054 95.9129C62.786 96.5521 65.7659 94.2702 65.5807 89.6528C65.4269 85.8191 63.0931 80.4014 59.0091 74.3974L59.0309 73.7322C61.9984 78.0948 65.5811 84.4254 65.7971 89.8099C65.9023 92.4329 65.1893 94.3458 63.6779 95.4953C62.8163 96.1505 61.7141 96.5521 60.3844 96.6971Z" fill="white"/>
<g filter="url(#filter0_f_205_15)">
<path d="M36 35C40.4183 35 44 31.4183 44 27C44 22.5817 40.4183 19 36 19C31.5817 19 28 22.5817 28 27C28 31.4183 31.5817 35 36 35Z" fill="white"/>
</g>
<defs>
<filter id="filter0_f_205_15" x="5" y="-4" width="62" height="62" filterUnits="userSpaceOnUse" color-interpolation-filters="sRGB">
<feFlood flood-opacity="0" result="BackgroundImageFix"/>
<feBlend mode="normal" in="SourceGraphic" in2="BackgroundImageFix" result="shape"/>
<feGaussianBlur stdDeviation="11.5" result="effect1_foregroundBlur_205_15"/>
</filter>
</defs>
</svg>
